<svg width="106" height="24" viewBox="0 0 106 24" fill="none" xmlns="http://www.w3.org/2000/svg">
  <path d="M0 0h106v24H0z" fill="#00B67A"/>
  <path d="M32.596 8.716l-3.974 9.567h-1.85L22.8 8.716h1.95l2.848 7.09 2.847-7.09h2.15zm6.973 9.567h-1.8V8.716h1.8v9.567zm8.273-7.866c1.733 0 3.066 1.25 3.066 3.083v4.783h-1.8v-4.583c0-1.017-.733-1.75-1.733-1.75-1.117 0-1.967.733-1.967 2.1v4.233h-1.8V8.716h1.8v.85c.534-.65 1.334-1 2.434-1zm12.63 7.866l-.233-1.083c-.584.833-1.617 1.233-2.734 1.233-1.733 0-2.833-1.067-2.833-2.517 0-1.516 1.1-2.483 3.117-2.483h2.433v-.4c0-1.1-.733-1.733-2.067-1.733-.833 0-1.733.3-2.433.833l-.7-1.3c.933-.7 2.1-1.067 3.333-1.067 2.117 0 3.617 1.1 3.617 3.2v5.317h-1.5zm-.25-3.483h-2.3c-1.117 0-1.617.433-1.617 1.2 0 .75.617 1.25 1.617 1.25 1.333 0 2.3-.733 2.3-1.95v-.5zm10.98-5.934c1.733 0 3.066 1.25 3.066 3.083v4.783h-1.8v-4.583c0-1.017-.733-1.75-1.733-1.75-1.117 0-1.967.733-1.967 2.1v4.233h-1.8V8.716h1.8v.85c.534-.65 1.334-1 2.434-1zm12.63 7.866l-.233-1.083c-.584.833-1.617 1.233-2.734 1.233-1.733 0-2.833-1.067-2.833-2.517 0-1.516 1.1-2.483 3.117-2.483h2.433v-.4c0-1.1-.733-1.733-2.067-1.733-.833 0-1.733.3-2.433.833l-.7-1.3c.933-.7 2.1-1.067 3.333-1.067 2.117 0 3.617 1.1 3.617 3.2v5.317h-1.5zm-.25-3.483h-2.3c-1.117 0-1.617.433-1.617 1.2 0 .75.617 1.25 1.617 1.25 1.333 0 2.3-.733 2.3-1.95v-.5z" fill="#fff"/>
</svg> 